# xmcd CD database file
#
# Track frame offsets:
#	150
#	35983
#	60761
#	97307
#	120441
#	152404
#	179193
#	206070
#
# Disc length: 3229 seconds
#
# Revision: 0
# Processed by: cddbd v1.4PL0 Copyright (c) Steve Scherf et al.
# Submitted via: CDex 1.50
#
DISCID=6f0c9b08
DTITLE=Naturescapes - Waterfall Suite
DYEAR=1996
DGENRE=New Age
TTITLE0=Aqueous Journey
TTITLE1=Reflections
TTITLE2=Free as a Bird
TTITLE3=Spirit of the Waters
TTITLE4=Waterfall Suite
TTITLE5=Sunset Serenade
TTITLE6=Dancing with the Moon
TTITLE7=Journey's End
EXTD=YEAR: 1996
EXTT0=
EXTT1=
EXTT2=
EXTT3=
EXTT4=
EXTT5=
EXTT6=
EXTT7=
PLAYORDER=
